<svg class="svg-icon" style="width: 1em; height: 1em;vertical-align: middle;fill: currentColor;overflow: hidden;" viewBox="0 0 1024 1024" version="1.1" xmlns="http://www.w3.org/2000/svg"><path d="M963.999 128h-904c-33 0-60 27.295-60 60.655v646.69c0 33.36 27 60.655 60 60.655h904c33 0 60-27.295 60-60.655v-646.69c0-33.36-27-60.655-60-60.655z m0 60.655v18.073a29.729 29.729 0 0 0-4.569 2.139L511.999 467.191 64.568 208.867a29.962 29.962 0 0 0-4.569-2.139v-18.073h904z m-904 646.69V275.511l432.463 249.683c5.511 4.532 12.476 6.937 19.537 6.856 7.061 0.081 14.026-2.324 19.537-6.856l432.463-249.683v559.834h-904z"  /></svg>